<svg xmlns="http://www.w3.org/2000/svg" xmlns:xlink="http://www.w3.org/1999/xlink" version="1.1" x="0px" y="0px" style="enable-background:new 0 0 800 600;" xml:space="preserve" viewBox="90.06 217.97 619.9 176.75">
<style type="text/css">
	.st0{fill:#FFFFFF;}
	.st1{opacity:0.64;fill:#FFFFFF;}
</style>
<g id="Layer_8">
	<path class="st0" d="M178.8,245.41c-3.6,1.44-6.96,3.03-10.08,4.77c-3.12,1.74-6.24,3.51-9.36,5.31c-1.32,1.32-2.82,2.4-4.5,3.24   c-1.68,0.84-3.12,2.04-4.32,3.6c-4.08,2.4-8.07,4.83-11.97,7.29c-3.9,2.46-7.65,5.07-11.25,7.83c0.24,0.6,0.66,0.87,1.26,0.81   c0.6-0.06,1.32-0.09,2.16-0.09c2.4,0.24,4.77,0.42,7.11,0.54c2.34,0.12,4.95,0.3,7.83,0.54c2.04,0.12,4.11,0.18,6.21,0.18   c2.1,0,4.17,0.06,6.21,0.18c2.28,0.24,4.47,0.48,6.57,0.72c2.1,0.24,4.17,0.24,6.21,0c0.48,0.24,0.84,0.36,1.08,0.36   c2.04-0.24,4.17-0.36,6.39-0.36c2.22,0,4.41,0.12,6.57,0.36c0.96,0,2.19-0.09,3.69-0.27c1.5-0.18,2.91-0.09,4.23,0.27   c0.6,0,1.23,0.06,1.89,0.18c0.66,0.12,1.35,0.06,2.07-0.18c1.2,0.12,2.46,0.27,3.78,0.45c1.32,0.18,2.7,0.33,4.14,0.45   c1.92,0.24,3.84,0.42,5.76,0.54c1.92,0.12,3.84,0.42,5.76,0.9c0.84,0.24,1.8,0.6,2.88,1.08c1.08,0.48,1.92,1.02,2.52,1.62   c0.84,0.6,1.44,1.32,1.8,2.16c1.68,1.32,3.03,3.27,4.05,5.85c1.02,2.58,1.17,5.25,0.45,8.01c0.36,0.36,0.54,0.78,0.54,1.26   c-0.24,0.48-0.6,0.72-1.08,0.72c-0.12,0.96-0.27,1.68-0.45,2.16c-0.18,0.48-0.57,1.08-1.17,1.8c-0.12,0.24-0.36,0.48-0.72,0.72   c-0.36,0.24-0.66,0.48-0.9,0.72c0,0.12,0.06,0.24,0.18,0.36c0.12,0.12,0.06,0.24-0.18,0.36c0,0.24-0.06,0.39-0.18,0.45   c-0.12,0.06-0.24,0.21-0.36,0.45c-0.48,0.96-1.05,1.53-1.71,1.71c-0.66,0.18-1.29,0.57-1.89,1.17c-0.12,0.36-0.12,0.72,0,1.08   c-0.96-0.48-1.83-0.42-2.61,0.18c-0.78,0.6-1.53,1.2-2.25,1.8c-0.24,0.12-0.36,0.06-0.36-0.18c-1.08,0.84-2.43,1.53-4.05,2.07   c-1.62,0.54-3.09,0.99-4.41,1.35c-0.96,0.72-1.95,1.29-2.97,1.71c-1.02,0.42-2.07,0.78-3.15,1.08c-1.08,0.3-2.16,0.63-3.24,0.99   c-1.08,0.36-2.16,0.9-3.24,1.62c-0.36,0-0.54-0.06-0.54-0.18c-2.04,1.2-4.14,2.13-6.3,2.79c-2.16,0.66-4.14,1.59-5.94,2.79   c-2.88,0.24-5.04,1.08-6.48,2.52c-1.44,0.6-2.85,0.96-4.23,1.08c-1.38,0.12-2.55,0.6-3.51,1.44c-0.84,0-1.56,0.27-2.16,0.81   c-0.6,0.54-1.44,0.63-2.52,0.27c-0.36,0.36-0.81,0.63-1.35,0.81c-0.54,0.18-1.11,0.15-1.71-0.09c-0.36,0-0.54,0.12-0.54,0.36   c0,0.24-0.18,0.36-0.54,0.36c-0.72,0-1.56,0.15-2.52,0.45c-0.96,0.3-1.74,0.75-2.34,1.35c-2.52,0.12-5.1,0.66-7.74,1.62   c-2.64,0.96-5.16,1.68-7.56,2.16c-0.6,0.24-1.14,0.33-1.62,0.27c-0.48-0.06-1.02-0.03-1.62,0.09c-0.48,0-0.93,0.12-1.35,0.36   c-0.42,0.24-0.87,0.36-1.35,0.36c-0.6,0.12-1.23,0.15-1.89,0.09c-0.66-0.06-0.93,0.39-0.81,1.35c-1.32,0.24-2.85,0.54-4.59,0.9   c-1.74,0.36-3.39,0.66-4.95,0.9c-0.6,0-1.26-0.03-1.98-0.09c-0.72-0.06-1.02-0.51-0.9-1.35c1.2,0.36,2.37,0.45,3.51,0.27   c1.14-0.18,2.49-0.39,4.05-0.63c-0.48-0.72-1.2-0.99-2.16-0.81c-0.96,0.18-1.98,0.39-3.06,0.63c-0.24-0.24-0.33-0.45-0.27-0.63   c0.06-0.18,0.03-0.39-0.09-0.63c-0.48,0-0.84,0.09-1.08,0.27c-0.24,0.18-0.48,0.15-0.72-0.09c0,0.24,0.06,0.42,0.18,0.54   c0.12,0.12,0.06,0.3-0.18,0.54c-1.44,0.36-2.73,0.57-3.87,0.63c-1.14,0.06-2.25,0.09-3.33,0.09c-0.36,0-0.48-0.09-0.36-0.27   c0.12-0.18,0.18-0.33,0.18-0.45c-0.84-0.36-1.77-0.3-2.79,0.18c-1.02,0.48-1.83,0.84-2.43,1.08c-0.12-0.24-0.09-0.51,0.09-0.81   c0.18-0.3,0.27-0.57,0.27-0.81c-0.12-0.48-0.36-0.63-0.72-0.45c-0.36,0.18-0.78,0.21-1.26,0.09v-1.26   c-0.36-0.12-0.54-0.06-0.54,0.18c0,0.24-0.12,0.36-0.36,0.36c-0.72-0.48-1.44-0.63-2.16-0.45s-1.44,0.45-2.16,0.81   c-0.72,0.36-1.44,0.66-2.16,0.9c-0.72,0.24-1.38,0.06-1.98-0.54c0.36-0.84,0.87-1.44,1.53-1.8c0.66-0.36,0.93-1.08,0.81-2.16   c-0.24,0-0.42,0.15-0.54,0.45c-0.12,0.3-0.3,0.33-0.54,0.09c-0.6-0.48-1.26-0.69-1.98-0.63c-0.72,0.06-1.26,0.39-1.62,0.99   c-0.36-0.36-0.66-0.6-0.9-0.72c0.24-0.72,0.9-1.47,1.98-2.25c1.08-0.78,1.92-1.23,2.52-1.35c0.6-1.2,1.53-2.01,2.79-2.43   c1.26-0.42,2.37-0.99,3.33-1.71c1.68-0.36,3.24-0.9,4.68-1.62c1.44-0.72,2.82-1.44,4.14-2.16c0.36-0.24,0.75-0.39,1.17-0.45   c0.42-0.06,0.81-0.21,1.17-0.45c0.24-0.24,0.51-0.51,0.81-0.81c0.3-0.3,0.63-0.57,0.99-0.81c1.32-0.24,2.52-0.6,3.6-1.08   c1.08-0.48,2.22-0.9,3.42-1.26c0.6-0.6,1.26-0.99,1.98-1.17c0.72-0.18,1.32-0.51,1.8-0.99c1.68-0.6,3.33-1.29,4.95-2.07   c1.62-0.78,3.21-1.65,4.77-2.61c3.12-1.68,6.24-3.27,9.36-4.77c3.12-1.5,5.82-3.15,8.1-4.95c3.48-1.44,6.84-2.88,10.08-4.32   c3.24-1.44,6.48-2.82,9.72-4.14c-0.96-0.36-2.1-0.6-3.42-0.72c-1.32-0.12-2.34,0.06-3.06,0.54c-6.48-0.72-12.63-0.96-18.46-0.72   c-5.82,0.24-11.79,0.06-17.92-0.54c-1.2-0.12-2.16-0.21-2.88-0.27c-0.72-0.06-1.56,0.03-2.52,0.27c-0.12-0.12-0.24-0.21-0.36-0.27   c-0.12-0.06-0.24-0.15-0.36-0.27c-2.28-0.36-4.2-0.81-5.76-1.35c-1.56-0.54-3-1.47-4.32-2.79c-0.36,0.12-0.66,0.09-0.9-0.09   c-0.24-0.18-0.48-0.27-0.72-0.27c-0.72-0.72-1.86-1.32-3.42-1.8c-2.04-1.32-3.54-3.18-4.5-5.58c-0.96-2.4-1.74-4.98-2.34-7.74   c-0.24-2.04-0.39-3.96-0.45-5.76c-0.06-1.8,0.57-3.3,1.89-4.5c-0.12-0.6-0.06-1.14,0.18-1.62c0.24-0.24,0.36-0.27,0.36-0.09   c0,0.18,0.12,0.27,0.36,0.27c1.2-2.04,2.7-3.96,4.5-5.76c1.8-1.8,3.72-3.36,5.76-4.68c0.12-0.36,0.06-0.57-0.18-0.63   c-0.24-0.06-0.3-0.21-0.18-0.45c0.24,0.12,0.51,0.15,0.81,0.09c0.3-0.06,0.45,0.03,0.45,0.27c1.8-1.68,3.84-3.12,6.12-4.32   c2.28-1.2,4.5-2.46,6.66-3.78c0.12-0.12,0.18-0.42,0.18-0.9c1.68-0.36,3.06-0.81,4.14-1.35c1.08-0.54,2.16-1.35,3.24-2.43   c3.24-1.32,6.39-2.88,9.45-4.68c3.06-1.8,6.15-3.54,9.27-5.22c0.84-1.08,1.92-1.8,3.24-2.16c1.32-0.36,2.46-1.08,3.42-2.16   c1.2-0.36,2.28-0.96,3.24-1.8c0.96-0.84,2.1-1.44,3.42-1.8c0-0.24-0.06-0.48-0.18-0.72c-0.12-0.24,0-0.48,0.36-0.72   c0.24,0.24,0.36,0.24,0.36,0c0-0.24,0.24-0.3,0.72-0.18c0.24-0.24,0.21-0.45-0.09-0.63c-0.3-0.18-0.27-0.39,0.09-0.63   c3.48-0.36,6.54-0.81,9.18-1.35c2.64-0.54,5.22-1.53,7.74-2.97c0,0,3.41-0.73,2.9,2.34s-2.05,6.65-2.05,6.65s0.38,7.42-1.15,8.32   c-1.54,0.9-2.3,8.19-2.3,8.19S180.77,244.6,178.8,245.41z"/>
</g>
<g id="Layer_14">
	<path class="st0" d="M181.15,237.91c0,0,0.97-4.5-0.12-7.18c-1.09-2.68,0.73-4.01,0.73-4.01l1.82-1.82l-0.85-2.55   c0,0,1.58-1.82,1.58-2.8c0-0.97,1.38-1.5,1.38-1.5c0.84,0.12,1.71,0.3,2.61,0.54c0.9,0.24,1.71,0.48,2.43,0.72   c0.96,0,1.77,0.21,2.43,0.63c0.66,0.42,1.32,0.87,1.98,1.35c0.66,0.48,1.32,0.93,1.98,1.35c0.66,0.42,1.41,0.69,2.25,0.81   c0.36,0.6,0.78,1.05,1.26,1.35c0.48,0.3,0.84,0.75,1.08,1.35c0.6,0.24,1.11,0.51,1.53,0.81c0.42,0.3,0.93,0.51,1.53,0.63   c0.48,0.72,0.69,1.53,0.63,2.43c-0.06,0.9,0.15,1.77,0.63,2.61c0,0.12,0.21,0.48,0.63,1.08c0.42,0.6,0.69,1.08,0.81,1.44   c0.24,0.6,0.27,1.17,0.09,1.71c-0.18,0.54-0.27,1.11-0.27,1.71c-0.24,0.24-0.36,0.3-0.36,0.18c0-0.12-0.12-0.18-0.36-0.18   c-0.12,0.6-0.12,1.14,0,1.62c-1.8,3.84-3.57,7.62-5.31,11.34c-1.74,3.72-4.05,7.02-6.93,9.9c-0.72-0.12-1.2-0.06-1.44,0.18   c-0.24,0.24-0.6,0.36-1.08,0.36c-0.12-0.24-0.39-0.36-0.81-0.36c-0.42,0-0.57-0.3-0.45-0.9c-0.84,0.36-1.59,0.36-2.25,0   c-0.66-0.36-1.47-0.24-2.43,0.36c-0.36-0.36-0.9-0.78-1.62-1.26c-0.24,0.24-0.36,0.54-0.36,0.9c0,0.36-0.12,0.54-0.36,0.54   c-0.48-0.12-0.84-0.33-1.08-0.63c-0.24-0.3-0.6-0.57-1.08-0.81c0-0.96-0.24-1.62-0.72-1.98c-0.48-0.36-0.84-0.9-1.08-1.62   c-0.24,0-0.39,0.06-0.45,0.18c-0.06,0.12-0.21,0.12-0.45,0c-0.24-2.04-0.03-3.87,0.63-5.49c0.66-1.62,0.69-3.03,0.09-4.23   c0-0.6,0.18-1.02,0.54-1.26L181.15,237.91z"/>
</g>
<g id="Layer_7">
	<path class="st0" d="M286.65,285.02c-0.12,0-0.14,0.09-0.09,0.27c0.06,0.19,0.04,0.33-0.09,0.46c-1.44,0.36-2.78,1.14-4.05,2.33   c-1.26,1.2-2.55,1.99-3.87,2.35c-0.72,0.6-1.41,1.2-2.06,1.79c-0.67,0.6-1.47,1.09-2.44,1.45c-0.6,0.83-1.2,1.56-1.79,2.15   c-0.6,0.6-1.38,1.03-2.35,1.27c-3.13,2.51-6.06,5.33-8.82,8.46c-2.77,3.11-5.59,6-8.47,8.64c-0.24,0.72-0.63,1.26-1.17,1.63   c-0.54,0.36-0.99,0.83-1.35,1.44c0.47-0.24,0.83-0.38,1.08-0.45c0.24-0.06,0.47-0.33,0.72-0.81c0.36,0.24,0.6,0.29,0.72,0.18   c0.49-0.36,1-0.69,1.54-1c0.54-0.29,1.23-0.56,2.06-0.81c0.6-0.96,1.38-1.64,2.35-2.06c0.96-0.42,1.79-1,2.53-1.72   c2.15-1.08,4.19-2.22,6.11-3.42c1.92-1.19,3.81-2.4,5.68-3.6c1.86-1.19,3.72-2.33,5.58-3.42c1.86-1.08,3.81-2.04,5.86-2.87   c0.36-0.85,0.87-1.41,1.53-1.72c0.67-0.29,4.18-0.69,5.14-1.17l-4.33,21.97c-0.12,0.24-0.29,0.54-0.54,0.9   c-0.83,0.85-1.97,1.68-3.42,2.52c-1.44,0.83-2.58,1.73-3.42,2.69c-0.23,0.36-0.56,0.78-0.99,1.27c-0.42,0.47-0.92,0.83-1.53,1.08   c-0.13,0.24-0.18,0.45-0.18,0.63c0,0.18-0.06,0.33-0.18,0.45c-3.49,1.81-6.73,3.96-9.73,6.49c-3,2.53-6.42,4.45-10.27,5.77   c-0.12,0.23-0.21,0.47-0.27,0.72c-0.06,0.23-0.15,0.54-0.27,0.9c-0.96-0.13-2.06-0.03-3.33,0.27c-1.26,0.29-2.37,0.56-3.33,0.81   c0.24,0.24,0.67,0.36,1.27,0.36c0.12,0.96-0.13,1.45-0.72,1.45c-0.6,0-1.03,0.29-1.27,0.9c-0.83-0.36-1.56-0.6-2.15-0.72   c-0.72-1.09-1.51-1.96-2.35-2.61c-0.85-0.67-1.68-1.26-2.52-1.79c-0.83-0.55-1.7-1.09-2.6-1.63c-0.91-0.54-1.78-1.23-2.61-2.06   v-0.91c-0.12-0.23-0.36-0.23-0.72,0c-1.56-2.51-2.97-5.46-4.23-8.82c-1.27-3.36-2.08-6.96-2.44-10.81c-0.12-0.47-0.12-0.74,0-0.81   c0.12-0.06,0.24-0.15,0.36-0.27c-0.24-1.81-0.27-3.33-0.09-4.59c0.18-1.27,0.51-2.61,0.99-4.05c0.13-0.37,0.33-0.73,0.64-1.09   c0.29-0.36,0.56-0.72,0.81-1.08c0.12-0.6,0.36-1.14,0.72-1.61c0.24-0.6,0.45-0.96,0.63-1.09c0.18-0.12,0.38-0.23,0.63-0.36   c0.72-0.96,1.38-1.95,1.99-2.97c0.6-1.01,1.26-1.82,1.97-2.42h0.73c0.47-0.85,1.08-1.59,1.79-2.26c0.72-0.65,1.2-1.64,1.44-2.97   h0.55c0.12-0.36,0-0.47-0.37-0.36c-0.36,0.13-0.47,0-0.36-0.36c1.32-1.55,2.82-3,4.51-4.32c1.68-1.32,3.11-2.94,4.32-4.86   c0.23-0.13,0.36-0.09,0.36,0.09c0,0.18,0.05,0.15,0.18-0.09c0.72-0.85,1.53-1.54,2.42-2.08c0.91-0.54,1.65-1.46,2.26-2.79h1.08   c0.85-0.95,1.74-1.68,2.7-2.15c0.96-0.47,1.81-1.08,2.53-1.81c1.32-0.12,2.42-0.65,3.33-1.62c0.9-0.96,2.13-1.44,3.69-1.44   c0.23,0.12,0.36,0.09,0.36-0.09c0-0.18,0.05-0.33,0.18-0.46c1.32-0.23,2.88-0.45,4.68-0.63c1.81-0.18,3.67-0.5,5.58-0.99h0.64   c0.05,0,0.27,0.06,0.63,0.18h3.06c0.95,0,1.95,0.24,2.96,0.72c1.03,0.49,1.96,0.72,2.79,0.72c0.24,0,0.38-0.09,0.45-0.27   c0.06-0.18,0.15-0.27,0.27-0.27c1.09,0.24,2.04,0.85,2.88,1.81c0.85,0.96,1.81,1.38,2.88,1.26l-2.77,14.05   c-0.41,0.14-1.73,0.29-2.88,0.47c-0.01,0-0.01,0-0.03,0c-0.86,0.13-1.63,0.27-1.88,0.42C287.86,284.12,287.26,284.55,286.65,285.02   z"/>
	<path class="st0" d="M249.57,317.98c-0.24,0.12-0.45,0.3-0.63,0.54c-0.18,0.24-0.15,0.36,0.09,0.36c0-0.24,0.12-0.33,0.36-0.27   C249.63,318.67,249.68,318.46,249.57,317.98z"/>
	<path class="st0" d="M290.43,282.87c-0.03,0.15-0.04,0.31-0.06,0.47c-0.01,0-0.01,0-0.03,0L290.43,282.87z"/>
</g>
<g id="Layer_10">
	<path class="st0" d="M296.02,268.82c0.96-2.4,1.89-4.77,2.79-7.11c0.9-2.34,2.01-4.41,3.33-6.21h0.72c0.24-0.36,0.45-0.66,0.63-0.9   c0.18-0.24,0.33-0.54,0.45-0.9c0.96-0.24,1.89-0.9,2.79-1.98c0.9-1.08,1.95-1.5,3.15-1.26c0,0.24-0.09,0.36-0.27,0.36   c-0.18,0-0.33,0.12-0.45,0.36c0.48,0.48,1.02,0.54,1.62,0.18c0.48,0.24,1.05,0.57,1.71,0.99c0.66,0.42,1.35,0.39,2.07-0.09   c0,0.36,0.06,0.63,0.18,0.81c0.12,0.18,0.3,0.39,0.54,0.63c0.6-0.36,1.14-0.24,1.62,0.36c0.48,0.6,1.08,0.54,1.8-0.18   c0.48,0.48,0.93,0.96,1.35,1.44c0.42,0.48,0.93,0.78,1.53,0.9c0.72,1.8,1.56,3.51,2.52,5.13c0.96,1.62,1.62,3.57,1.98,5.85   c0.12,0.84,0.09,1.59-0.09,2.25c-0.18,0.66-0.21,1.41-0.09,2.25c0,0.36-0.06,0.6-0.18,0.72c-0.12,0.12-0.24,0.24-0.36,0.36   c0.24,0.72,0.18,1.47-0.18,2.25c-0.36,0.78-0.54,1.65-0.54,2.61c-0.6,1.32-1.14,2.79-1.62,4.41c-0.48,1.62-0.9,3.33-1.26,5.13   c0,0.24-0.18,0.36-0.54,0.36c-0.72,3.48-1.59,6.93-2.61,10.35c-1.02,3.42-2.13,6.75-3.33,9.99c-0.12,0.24-0.27,0.6-0.45,1.08   c-0.18,0.48-0.27,0.84-0.27,1.08c-0.12,0.36-0.15,0.72-0.09,1.08c0.06,0.36,0.03,0.6-0.09,0.72c-0.24,0.72-0.57,1.41-0.99,2.07   c-0.42,0.66-0.57,1.53-0.45,2.61c-1.2,3.36-2.16,6.84-2.88,10.44c-0.72,3.6-1.56,7.26-2.52,10.98c-0.48,1.2-1.02,2.37-1.62,3.51   c-0.6,1.14-1.14,2.25-1.62,3.33c-0.96,0.36-1.62,0.93-1.98,1.71c-0.36,0.78-1.02,1.35-1.98,1.71c0.24-0.6,0.09-0.9-0.45-0.9   s-1.05-0.06-1.53-0.18c0.84,0,1.14-0.54,0.9-1.62c-0.48-0.48-0.81-1.11-0.99-1.89c-0.18-0.78-0.57-0.87-1.17-0.27   c-0.24,0.12-0.39,0.09-0.45-0.09c-0.06-0.18-0.15-0.33-0.27-0.45c-0.24,0.12-0.27,0.27-0.09,0.45c0.18,0.18,0.15,0.39-0.09,0.63   c-0.84-0.36-1.62-1.14-2.34-2.34c-0.72-1.2-1.62-1.74-2.7-1.62c-0.12,0-0.15-0.12-0.09-0.36c0.06-0.24,0.03-0.36-0.09-0.36   c-0.24,0.24-0.27,0.36-0.09,0.36c0.18,0,0.15,0.12-0.09,0.36c-0.36,0.24-0.57,0.09-0.63-0.45c-0.06-0.54-0.15-1.05-0.27-1.53   c-0.24-0.24-0.36-0.24-0.36,0c0,0.24-0.06,0.24-0.18,0c-0.6-3.48-1.17-6.93-1.71-10.35c-0.54-3.42-0.69-7.11-0.45-11.07   c-0.24-0.36-0.42-0.42-0.54-0.18"/>
</g>
<g id="Layer_6">
	<path class="st0" d="M371.8,269.58c-0.23-0.79-0.42-1.59-0.6-2.41c-0.47-0.19-0.86-0.51-1.13-0.97c-0.28-0.46-0.59-0.92-0.91-1.4   c-0.7,0.49-1.22,0.45-1.53-0.12c-0.31-0.56-0.74-0.74-1.28-0.54c-0.17-0.23-0.29-0.44-0.36-0.6c-0.08-0.17-0.09-0.4-0.03-0.7   c-0.68,0.29-1.26,0.22-1.74-0.23c-0.47-0.44-0.91-0.79-1.27-1.06c-0.55,0.21-0.99,0.08-1.32-0.4c0.14-0.18,0.28-0.26,0.44-0.23   c0.14,0.03,0.23-0.05,0.27-0.26c-0.96-0.37-1.88-0.18-2.79,0.58c-0.91,0.77-1.78,1.18-2.61,1.24c-0.15,0.27-0.32,0.5-0.5,0.68   c-0.18,0.17-0.41,0.38-0.65,0.65l-0.6-0.12c-1.36,1.31-2.59,2.86-3.68,4.67c-1.09,1.81-2.2,3.64-3.36,5.49l-6.73,17.32l-0.01,0.7   c-1.68,3-3.18,6.06-4.5,9.19c-1.33,3.11-3.01,5.93-5.05,8.46c0.12,0.24,0.12,0.38,0,0.45c-0.12,0.06-0.18,0.21-0.18,0.45   c-0.96,0.96-1.62,2.1-1.97,3.42c-0.36,1.32-1.03,2.46-1.99,3.42c0,0.85-0.18,1.5-0.54,1.99c-0.36,0.47-0.72,0.9-1.08,1.26   c0,0.36-0.06,0.63-0.18,0.81c-0.13,0.18-0.13,0.4,0,0.63c-0.96,1.08-1.65,2.41-2.08,3.96c-0.42,1.56-1.05,2.88-1.88,3.96   c-0.24,1.2-0.69,2.35-1.36,3.42c-0.65,1.09-0.99,2.35-0.99,3.78c-0.24,0.24-0.38,0.49-0.45,0.72c-0.06,0.24-0.21,0.49-0.45,0.73   c-0.72,3-1.59,5.73-2.61,8.19c-1.01,2.46-2.06,5.01-3.15,7.65c0,0.23,0.09,0.36,0.27,0.36s0.22,0.12,0.09,0.36   c-0.72,1.79-1.32,3.11-1.79,3.96c-0.47,0.83-0.9,1.63-1.26,2.35c-0.37,0.72-0.69,1.55-1,2.51c-0.29,0.96-0.68,2.46-1.17,4.51   c0,0.12,0.09,0.18,0.27,0.18s0.27,0.12,0.27,0.36c-0.24,0.72-0.42,1.17-0.54,1.35c-0.12,0.18-0.24,0.33-0.36,0.45   c-0.12,0.12-0.21,0.29-0.27,0.54c-0.06,0.24-0.09,0.73-0.09,1.45c0,0.23-0.12,0.59-0.36,1.08c0.24,0.83,0.29,1.77,0.18,2.79   c-0.12,1.01-0.12,2.13,0,3.33c0,0.36,0.12,0.72,0.36,1.08c0.24,0.36,0.36,0.72,0.36,1.08c0.36,1.45,0.51,2.95,0.45,4.5   c-0.06,1.56,0.22,2.77,0.81,3.6c0.36,0.6,0.78,0.94,1.27,1c0.47,0.05,0.96,0.14,1.44,0.27c0.24,0.36,0.36,0.65,0.36,0.9   c0,0.24,0.13,0.47,0.36,0.72c0.13-0.12,0.36-0.09,0.72,0.09c0.36,0.18,0.67,0.27,0.91,0.27c0.24,0.24,0.36,0.51,0.36,0.81   c0,0.31,0.24,0.46,0.72,0.46c0.24,0,0.38-0.22,0.45-0.64c0.06-0.41,0.21-0.74,0.45-0.99c0.49,0.24,0.72,0.54,0.72,0.9   c0,0.37,0.18,0.6,0.54,0.73c0-0.6-0.05-1.09-0.18-1.45c-0.12-0.36,0.37-0.6,1.45-0.72c0-0.12-0.03-0.69-0.09-1.72   c-0.06-1.01,0.15-1.53,0.63-1.53v-1.53c0-0.42,0.06-0.94,0.18-1.54c0.6-0.24,0.9-0.74,0.9-1.53c0-0.78,0.31-1.23,0.9-1.35   c0.13,0.12,0.24-0.04,0.37-0.46c0.12-0.41,0.27-0.87,0.45-1.35c0.18-0.47,0.33-0.94,0.45-1.35c0.12-0.42,0.24-0.58,0.36-0.45   c0.47,0.23,0.87-0.13,1.17-1.09c0.29-0.96,0.4-1.61,0.27-1.97c0.49-0.85,0.76-1.29,0.82-1.36c0.05-0.05,0.05-0.03,0,0.09   c-0.06,0.13-0.06,0.15,0,0.09c0.05-0.05,0.32-0.56,0.81-1.53c0.12,0,0.18,0.03,0.18,0.09c0,0.06,0.12,0.09,0.36,0.09   c0.24-1.56,0.45-2.53,0.63-2.88c0.18-0.36,0.36-0.6,0.54-0.72c0.18-0.12,0.42-0.36,0.72-0.72c0.31-0.36,0.69-1.26,1.18-2.7   c0.12-0.24,0.27-0.33,0.45-0.27c0.18,0.06,0.14-0.03-0.09-0.27c0.96-0.47,1.32-1.03,1.08-1.62c-0.24-0.6,0.06-1.09,0.9-1.45   c-0.12,0.36-0.15,0.49-0.09,0.36c0.06-0.12,0.15-0.33,0.27-0.63c0.08-0.17,0.13-0.32,0.18-0.45c0.49-0.36,0.78-0.56,0.91-0.63   c0.12-0.06,0.14-0.13,0.09-0.18c-0.06-0.06-0.15-0.15-0.27-0.27c-0.13-0.13-0.06-0.42,0.18-0.9c0.12-0.37,0.32-0.73,0.63-1.09   c0.29-0.36,0.56-0.72,0.81-1.08c0.36-0.85,0.69-1.68,0.99-2.53c0.31-0.83,0.69-1.61,1.18-2.33c0.59-2.64,1.55-4.99,2.87-7.02   c1.32-2.05,2.17-4.32,2.52-6.84c0.24-0.24,0.51-0.42,0.81-0.54c0.31-0.13,0.58-0.31,0.81-0.54c-0.12-0.24-0.27-0.4-0.45-0.45   c-0.18-0.06-0.27-0.22-0.27-0.46c1.32-2.76,2.61-5.51,3.87-8.28c1.27-2.76,2.55-5.58,3.87-8.46c0.36,0.12,0.76,0.06,1.18-0.18   c0.41-0.24,0.63-0.65,0.63-1.26c0-0.24-0.15-0.31-0.45-0.18c-0.31,0.12-0.4,0.05-0.27-0.18c0-0.49,0.12-0.85,0.36-1.09   c0.27-0.09,0.44-0.1,0.5-0.06c-0.09-0.21-0.12-0.4-0.05-0.56c0.05-0.18,0.09-0.38,0.09-0.63c2.52-6,5.01-11.79,7.47-17.38   c2.46-5.58,5.24-11.13,8.37-16.65C368.58,283.05,371.8,275.86,371.8,269.58z M332.22,362.77c0.04-0.09,0.05-0.17,0.08-0.23   c0.01-0.04,0.03-0.05,0.03-0.06C332.31,362.52,332.28,362.62,332.22,362.77z"/>
</g>
<g id="Layer_11">
	<path class="st0" d="M341.39,291.87c-0.6-0.24-1.11-0.24-1.53,0c-0.42,0.24-0.81,0.18-1.17-0.18c-1.68,0.6-3.09,0.72-4.23,0.36   c-1.14-0.36-2.31-0.66-3.51-0.9c0-0.6-0.3-1.02-0.9-1.26c-0.6-0.24-0.96-0.66-1.08-1.26c-0.36-0.12-0.6-0.09-0.72,0.09   c-0.12,0.18-0.3,0.21-0.54,0.09c-0.12-0.24-0.15-0.45-0.09-0.63c0.06-0.18,0.09-0.39,0.09-0.63c-0.72-0.84-1.2-1.8-1.44-2.88   c-0.24-1.08-0.36-2.28-0.36-3.6c0.48-0.24,0.72-0.48,0.72-0.72c-0.24-0.12-0.57-0.03-0.99,0.27c-0.42,0.3-0.75,0.69-0.99,1.17   c-0.24-0.6-0.06-1.02,0.54-1.26c0.6-0.24,0.84-0.66,0.72-1.26c0.84-0.24,1.47-0.63,1.89-1.17c0.42-0.54,1.05-0.87,1.89-0.99   c0.24-0.24,0.45-0.42,0.63-0.54c0.18-0.12,0.39-0.3,0.63-0.54c2.52-0.84,5.01-1.83,7.47-2.97c2.46-1.14,4.95-2.25,7.47-3.33   c1.2-0.12,2.22-0.39,3.06-0.81c0.84-0.42,1.74-0.75,2.7-0.99c-0.12-0.6,13.56-5.04,13.68-5.04c0.36,0,1.53-0.18,3.51-0.54   c1.98-0.36,4.17-0.69,6.57-0.99c2.4-0.3,4.74-0.57,7.02-0.81c2.28-0.24,3.9-0.3,4.86-0.18c1.2,0.48,2.28,0.6,3.24,0.36   c0.96-0.24,2.04-0.24,3.24,0c1.68,0.24,3.09,0.57,4.23,0.99c1.14,0.42,2.55,0.75,4.23,0.99c1.44,0.12,2.58,0.54,3.42,1.26   c0.84,0.72,1.98,1.14,3.42,1.26c0.72,0.6,1.5,1.17,2.34,1.71c0.84,0.54,1.62,0.99,2.34,1.35c0.36,0.48,0.69,0.87,0.99,1.17   c0.3,0.3,0.75,0.57,1.35,0.81c0.96,1.32,1.83,2.52,2.61,3.6c0.78,1.08,1.53,2.28,2.25,3.6c0.48,2.04,0.57,3.93,0.27,5.67   c-0.3,1.74-0.69,3.33-1.17,4.77c-0.36,0.36-0.54,0.6-0.54,0.72c-0.12,0.24-0.15,0.42-0.09,0.54c0.06,0.12,0.09,0.3,0.09,0.54   c-1.44,1.32-2.73,2.76-3.87,4.32c-1.14,1.56-2.49,2.94-4.05,4.14c0,0.24-0.06,0.39-0.18,0.45c-0.12,0.06-0.12,0.27,0,0.63   c-0.48,0-0.72,0.12-0.72,0.36c0,0.24-0.12,0.36-0.36,0.36c-0.12,0.12-0.18,0.24-0.18,0.36c0,0.12-0.06,0.24-0.18,0.36   c-1.32,1.08-2.91,2.64-4.77,4.68c-1.86,2.04-3.39,3.6-4.59,4.68c-0.72,0.6-1.26,1.05-1.62,1.35c-0.36,0.3-0.66,0.6-0.9,0.9   c-0.24,0.3-0.51,0.63-0.81,0.99c-0.3,0.36-0.81,0.78-1.53,1.26c-3.84,2.04-7.38,4.26-10.62,6.66c-3.24,2.4-6.78,4.56-10.62,6.48   c-0.72,0.6-0.93,1.05-0.63,1.35c0.3,0.3,0.69,0.57,1.17,0.81c0.48,0.24,0.87,0.51,1.17,0.81c0.3,0.3,0.09,0.75-0.63,1.35   c-1.08,0.48-2.1,0.99-3.06,1.53c-0.96,0.54-1.92,1.11-2.88,1.71h-0.18c-0.12,0-0.18-0.06-0.18-0.18c-0.24,0.24-0.51,0.42-0.81,0.54   c-0.3,0.12-0.51,0.36-0.63,0.72c-0.72-0.24-1.38-0.09-1.98,0.45c-0.6,0.54-1.32,0.69-2.16,0.45c0-0.24,0.15-0.39,0.45-0.45   c0.3-0.06,0.51-0.21,0.63-0.45c-1.08-0.12-2.07-0.09-2.97,0.09c-0.9,0.18-1.83,0.39-2.79,0.63c0,0.24-0.09,0.54-0.27,0.9   c-0.18,0.36-0.57,0.54-1.17,0.54c-0.24-0.12-0.33-0.3-0.27-0.54c0.06-0.24-0.09-0.48-0.45-0.72c-0.36-0.12-0.81-0.03-1.35,0.27   c-0.54,0.3-0.93,0.27-1.17-0.09c-0.24-0.24-0.33-0.21-0.27,0.09c0.06,0.3,0.03,0.39-0.09,0.27c-0.24,0-0.48-0.03-0.72-0.09   c-0.24-0.06-0.42-0.21-0.54-0.45c-0.84,0.48-1.74,0.48-2.7,0c-0.96-0.48-1.92-0.54-2.88-0.18c0.36-0.6,0.42-1.05,0.18-1.35   c-0.24-0.3-0.36-0.69-0.36-1.17c-0.24-0.12-0.42-0.15-0.54-0.09c-0.12,0.06-0.3,0.09-0.54,0.09c0.36-0.96,0.72-1.83,1.08-2.61   c0.36-0.78,0.84-1.59,1.44-2.43c1.32-3,3.36-5.49,6.12-7.47c2.76-1.98,5.34-3.93,7.74-5.85c1.44-1.2,2.85-2.31,4.23-3.33   c1.38-1.02,2.67-2.07,3.87-3.15c0.6-0.24,1.26-0.54,1.98-0.9c1.32-1.32,2.7-3,4.14-5.04c1.44-2.04,2.88-4.14,4.32-6.3   s2.88-4.23,4.32-6.21c1.44-1.98,2.82-3.51,4.14-4.59c0.6-1.2,1.32-2.13,2.16-2.79c0.84-0.66,1.68-1.47,2.52-2.43   c-0.96-0.6-2.01-0.81-3.15-0.63c-1.14,0.18-2.37,0.21-3.69,0.09c-0.96,0-1.86-0.12-2.7-0.36c-0.84-0.24-1.62-0.18-2.34,0.18   c-0.24,0.12-0.36,0.09-0.36-0.09s-0.12-0.21-0.36-0.09c-1.68,0.6-3.75,0.93-6.21,0.99c-2.46,0.06-4.65,0.57-6.57,1.53"/>
</g>
<g id="Layer_5">
	<path class="st0" d="M423.14,336.34c-0.12,0.24-0.06,0.6,0.18,1.08c-0.72,0-1.14,0.18-1.26,0.54c-0.12,0.36-0.24,0.6-0.36,0.72   c-0.12,0.72-0.36,1.44-0.72,2.16c-0.36,0.72-0.69,1.2-0.99,1.44c-0.3,0.24-0.51,0.12-0.63-0.36c-0.12-0.48,0-1.44,0.36-2.88   c-0.24-0.24-0.42-0.27-0.54-0.09c-0.12,0.18-0.18,0.21-0.18,0.09c0.36,0.48,0.18,0.84-0.54,1.08c0.12,1.68,0.03,2.76-0.27,3.24   c-0.3,0.48-0.6,0.57-0.9,0.27c-0.3-0.3-0.51-0.87-0.63-1.71c-0.12-0.84,0.06-1.74,0.54-2.7c-0.24,0-0.33,0.03-0.27,0.09   c0.06,0.06,0.03,0.15-0.09,0.27c-0.12,0-0.24-0.06-0.36-0.18c-0.12-0.12-0.06-0.3,0.18-0.54c-0.36,0.6-1.02,1.32-1.98,2.16   c-0.96,0.84-1.32,1.38-1.08,1.62c0,0.24-0.15,0.33-0.45,0.27c-0.3-0.06-0.51-0.15-0.63-0.27c0,1.44-0.06,2.19-0.18,2.25   c-0.12,0.06-0.27-0.09-0.45-0.45c-0.18-0.36-0.39-0.66-0.63-0.9c-0.24-0.24-0.42,0-0.54,0.72c-0.24-0.24-0.39-0.51-0.45-0.81   c-0.06-0.3-0.33-0.45-0.81-0.45c0.6,0.24,0.54,0.72-0.18,1.44c0.24-1.32,0.21-2.22-0.09-2.7c-0.3-0.48,0.09-1.08,1.17-1.8   c-0.24-0.24-0.33-0.54-0.27-0.9c0.06-0.36,0.15-0.66,0.27-0.9c0-0.72,0.12-1.38,0.36-1.98c0.24-0.6,0.42-1.26,0.54-1.98   c0-1.2,0.36-2.52,1.08-3.96c0.12-1.2,0.33-2.37,0.63-3.51c0.3-1.14,0.69-2.19,1.17-3.15c-0.6-0.36-0.42-0.66,0.54-0.9   c-0.36-0.24-0.45-0.45-0.27-0.63c0.18-0.18,0.09-0.27-0.27-0.27c0.72-0.48,1.02-1.02,0.9-1.62c0.24,0,0.36-0.12,0.36-0.36   c0-0.24-0.12-0.48-0.36-0.72c1.08-0.36,1.2-0.96,0.36-1.8c0.72-0.24,1.05-0.6,0.99-1.08c-0.06-0.48,0.03-0.84,0.27-1.08   c0.24-0.72,0.57-1.62,0.99-2.7c0.42-1.08,0.63-2.1,0.63-3.06c0.24-0.24,0.33-0.45,0.27-0.63c-0.06-0.18,0.03-0.45,0.27-0.81   c-0.24-0.84,0-1.71,0.72-2.61c0.72-0.9,0.84-1.65,0.36-2.25c0.36-0.36,0.72-0.6,1.08-0.72c-0.72-0.24-0.87-0.48-0.45-0.72   c0.42-0.24,0.63-0.54,0.63-0.9c0-0.24-0.03-0.48-0.09-0.72c-0.06-0.24-0.03-0.48,0.09-0.72c0.24-0.24,0.48-0.51,0.72-0.81   c0.24-0.3,0.3-0.57,0.18-0.81c0.24-0.12,0.39-0.24,0.45-0.36c0.06-0.12,0.15-0.18,0.27-0.18c-0.24-0.6-0.15-1.14,0.27-1.62   c0.42-0.48,0.51-0.9,0.27-1.26c0.12-0.36,0.3-0.66,0.54-0.9c0.24-0.24,0.3-0.48,0.18-0.72l-0.54-0.36c0-0.12,0.12-0.21,0.36-0.27   c0.24-0.06,0.48-0.15,0.72-0.27c0.12-0.24,0.12-0.51,0-0.81c-0.12-0.3-0.12-0.69,0-1.17c0.24-0.84,0.54-1.38,0.9-1.62   c0-0.24-0.12-0.36-0.36-0.36c0.6-0.72,0.99-1.65,1.17-2.79c0.18-1.14,0.57-2.19,1.17-3.15c-0.48-0.48-0.45-0.96,0.09-1.44   c0.54-0.48,0.81-1.02,0.81-1.62c0.24-0.24,0.39-0.45,0.45-0.63c0.06-0.18,0.15-0.33,0.27-0.45c0.36-0.72,0.69-1.41,0.99-2.07   c0.3-0.66,0.57-1.29,0.81-1.89c0.24-0.24,0.24-0.3,0-0.18c-0.24,0.12-0.36,0.06-0.36-0.18c0.96-0.48,1.56-0.99,1.8-1.53   c0.24-0.54,0.6-0.93,1.08-1.17c0.72-0.12,1.23-0.33,1.53-0.63c0.3-0.3,0.69-0.57,1.17-0.81c1.32-0.36,2.61-0.57,3.87-0.63   c1.26-0.06,2.31-0.39,3.15-0.99c2.64-0.24,4.77-0.48,6.39-0.72c1.62-0.24,3.69-0.36,6.21-0.36c0.36,0,0.6,0.12,0.72,0.36   c0.48-0.12,0.96-0.18,1.44-0.18c0.48,0.12,0.87,0.33,1.17,0.63c0.3,0.3,0.63,0.39,0.99,0.27c0.72,0.84,1.02,1.65,0.9,2.43   c-0.12,0.78-0.36,1.59-0.72,2.43c-0.48,1.32-0.99,2.67-1.53,4.05c-0.54,1.38-1.35,2.73-2.43,4.05c-0.24,0.72-0.45,1.44-0.63,2.16   c-0.18,0.72-0.75,1.44-1.71,2.16c0.24,0.12,0.33,0.18,0.27,0.18c-0.06,0,0.09,0.12,0.45,0.36c-0.96,1.32-1.68,2.79-2.16,4.41   c-0.48,1.62-1.32,3.09-2.52,4.41v0.54c-0.72,1.2-1.38,2.67-1.98,4.41c-0.6,1.74-1.23,3.51-1.89,5.31c-0.66,1.8-1.32,3.54-1.98,5.22   c-0.66,1.68-1.41,3.12-2.25,4.32c0.12,0.24,0.09,0.42-0.09,0.54c-0.18,0.12-0.15,0.36,0.09,0.72c-1.68,2.64-3.33,5.22-4.95,7.74   c-1.62,2.52-2.67,5.16-3.15,7.92c-0.6,0.24-0.99,0.54-1.17,0.9c-0.18,0.36-0.69,0.66-1.53,0.9c-0.12-0.24-0.3-0.48-0.54-0.72   c-1.56,0.24-2.34,0.81-2.34,1.71c0,0.9-0.12,1.71-0.36,2.43c-0.36,0-0.48,0.12-0.36,0.36c0.12,0.24,0,0.24-0.36,0   c0.48,0.36,0.66,0.69,0.54,0.99c-0.12,0.3-0.33,0.54-0.63,0.72c-0.3,0.18-0.57,0.33-0.81,0.45c-0.24,0.12-0.24,0.3,0,0.54   c-0.36,0.24-0.6,0.12-0.72-0.36c-0.12-0.48-0.36-0.66-0.72-0.54c0.12-0.12,0.15-0.27,0.09-0.45c-0.06-0.18,0.03-0.27,0.27-0.27   c-0.36-0.12-0.63-0.36-0.81-0.72C424.13,336.52,423.74,336.34,423.14,336.34z"/>
</g>
<g id="Layer_9">
	<path class="st0" d="M444.03,241.27c-0.12-0.24-0.3-0.36-0.54-0.36c-0.24,0-0.24-0.12,0-0.36c0.36-0.12,0.78-0.15,1.26-0.09   c0.48,0.06,0.84-0.03,1.08-0.27c0.6,0,0.96-0.15,1.08-0.45c0.12-0.3,0.3-0.57,0.54-0.81c0.48,0,0.96-0.12,1.44-0.36   c0.48-0.48,1.2-0.9,2.16-1.26c0.96-0.36,1.95-0.45,2.97-0.27c1.02,0.18,2.25,0.27,3.69,0.27c0.6,0.24,1.14,0.39,1.62,0.45   c0.48,0.06,1.2,0.15,2.16,0.27c0.36,0.48,0.93,0.81,1.71,0.99c0.78,0.18,1.41,0.57,1.89,1.17h0.36l0.36-0.36   c0,0.36,0.06,0.66,0.18,0.9c1.08,0.48,1.89,1.23,2.43,2.25c0.54,1.02,1.29,1.77,2.25,2.25c0.12,1.08,0.27,2.28,0.45,3.6   c0.18,1.32-0.69,2.46-2.61,3.42c-0.36,0.12-0.6,0.36-0.72,0.72c-1.68,0.12-2.82,0.42-3.42,0.9c-3,0-4.2,0.72-3.6,2.16   c-0.6,0.36-1.05,0.78-1.35,1.26c-0.3,0.48-0.57,1.02-0.81,1.62c-0.6,0.12-1.14,0.33-1.62,0.63c-0.48,0.3-1.2,0.57-2.16,0.81   c-0.24,0-0.33-0.06-0.27-0.18c0.06-0.12-0.09-0.24-0.45-0.36c-3,0.6-5.91,0.84-8.73,0.72c-2.82-0.12-5.13-0.54-6.93-1.26   l-0.54-0.54c-0.24-0.24-0.48-0.3-0.72-0.18c-0.24,0.12-0.48,0.06-0.72-0.18c0-0.36-0.15-0.75-0.45-1.17   c-0.3-0.42-0.39-0.81-0.27-1.17c0-0.36,0.06-0.66,0.18-0.9c0.12-0.24,0.18-0.54,0.18-0.9c-0.24-0.6-0.18-1.47,0.18-2.61   c0.36-1.14,0.78-2.01,1.26-2.61c0.12-0.12,0.24-0.36,0.36-0.72c0.12-0.36,0.3-0.66,0.54-0.9c0.72-1.08,1.47-2.1,2.25-3.06   c0.78-0.96,1.59-1.92,2.43-2.88c0.12,0,0.24-0.03,0.36-0.09C443.6,241.3,443.78,241.27,444.03,241.27z"/>
</g>
<g id="Layer_4">
	<path class="st0" d="M498.05,288.02c-0.1,0.03-0.19,0.05-0.29,0.09c0,0,0.01-0.01,0.01-0.03   C497.82,287.99,497.91,287.98,498.05,288.02z"/>
	<path class="st0" d="M540.17,271.61c-0.12,0.42-0.21,0.87-0.27,1.35c-0.05,0.49,0.04,0.96,0.27,1.45c0,0.23-0.09,0.45-0.27,0.63   c-0.18,0.18-0.21,0.45-0.09,0.81c-0.96,0.96-1.79,2.08-2.51,3.33c-0.73,1.26-1.51,2.37-2.35,3.33c-0.24,0.12-0.4,0.24-0.45,0.36   c-0.01,0.03-0.04,0.06-0.06,0.09c-0.08,0.09-0.22,0.18-0.38,0.27c-0.49,0.6-0.94,1.14-1.36,1.61c-0.42,0.49-0.92,0.96-1.53,1.45   c-0.24,0.24-0.51,0.42-0.81,0.54c-0.31,0.12-0.58,0.42-0.81,0.9c-0.24,0.24-0.55,0.51-0.91,0.81c-0.36,0.31-0.65,0.58-0.9,0.82   c-0.6,0.23-1.29,0.51-2.06,0.81c-0.79,0.29-1.36,0.74-1.72,1.35c-1.27,0.7-2.5,1.45-3.7,2.22c-0.63,0.4-1.26,0.79-1.87,1.2   c-1.81,1.2-3.73,2.28-5.77,3.24c-0.6,0.24-1.14,0.38-1.62,0.45c-0.49,0.06-0.91,0.33-1.27,0.81c-0.6,0-1.14,0.22-1.61,0.63   c-0.49,0.42-1.08,0.69-1.81,0.82c-0.36,0-0.6,0.18-0.72,0.54l-0.54-0.18c-1.2,0.83-2.44,1.47-3.69,1.88   c-1.26,0.42-2.55,0.81-3.87,1.18c-0.47,0.12-0.72,0.05-0.72-0.19c-0.6,0.13-1.05,0.31-1.35,0.55c-0.31,0.24-0.76,0.29-1.36,0.18   c-0.24,0.24-0.47,0.42-0.72,0.54c-0.4,0-0.78,0.03-1.15,0.06c-0.12,0.01-0.22,0.03-0.32,0.04c-0.18,0.03-0.36,0.05-0.54,0.09   c-0.23,0.04-0.46,0.1-0.69,0.17c-0.83,0.24-1.74,0.24-2.69,0c-0.24,0-0.37,0.06-0.37,0.18c0,0.12-0.12,0.24-0.36,0.36   c-0.6-0.24-1.19-0.36-1.79-0.36c-0.47,0-0.83-0.18-1.08-0.54c-0.63,0.01-1.2-0.06-1.72-0.22c-0.58-0.08-1.12-0.09-1.61-0.04   c-0.51,0.04-1.03-0.01-1.58-0.18c-0.21,0.04-0.45,0.04-0.73,0c-0.28-0.04-0.49-0.17-0.62-0.41c-0.79,0.65-1.33,0.81-1.63,0.47   c-0.28-0.33-0.96-0.55-2.01-0.67c0.7-0.38,1.09-0.32,1.13,0.18c0.12-0.36,0.06-0.59-0.15-0.7c-0.22-0.12-0.38-0.28-0.51-0.53   c0.58,0.08,0.79,0,0.67-0.24c-0.13-0.23-0.31-0.46-0.54-0.68c-0.23-0.22-0.31-0.36-0.23-0.44s0.65,0.05,1.73,0.37   c-0.06-0.12-0.08-0.29-0.06-0.54c0.03-0.23,0.13-0.33,0.31-0.27c0.13,0.23,0.62,0.08,1.46-0.45c0.7-0.44,1.29-0.74,1.77-0.9   c-0.06,0-0.12-0.04-0.14-0.09c-0.06-0.12-0.08-0.23-0.05-0.32c0.12-0.06,0.19-0.06,0.22,0c0.04,0.05,0.08,0,0.13-0.18   c-0.82,0.14-1.54,0.08-2.15-0.21c-0.6-0.28-0.99-0.58-1.14-0.86c-0.15-0.29-0.03-0.5,0.41-0.63c0.42-0.12,1.26,0.06,2.5,0.54   c0.33-0.46,0.63-0.54,0.9-0.22c0.03-0.01,0.08-0.04,0.14-0.06c0.17-0.05,0.18-0.19,0.05-0.42c-1.15-0.06-1.91-0.18-2.24-0.38   c-0.33-0.19-0.37-0.38-0.13-0.55c0.24-0.18,0.68-0.32,1.31-0.42c0.63-0.12,1.22-0.13,1.78-0.05c0.13-0.06,0.33-0.1,0.63-0.12   c0.29,0,0.53-0.28,0.69-0.82c0.31,0.28,0.56,0.41,0.77,0.37c0.14-0.45,0.09-0.78-0.14-1c-0.23-0.22-0.35-0.47-0.36-0.77   c-0.05,0.18-0.14,0.23-0.26,0.14c-0.13-0.09-0.24-0.09-0.36-0.04c0.17-0.24,0.09-0.46-0.24-0.65c-0.33-0.21-0.37-0.41-0.12-0.63   c0.13,0.23,0.27,0.28,0.41,0.12c0.14-0.14,0.32-0.32,0.51-0.5c0.21-0.19,0.44-0.29,0.69-0.31c0.26-0.03,0.46,0.18,0.62,0.63   c-0.09-0.33-0.06-0.42,0.09-0.27c0.15,0.14,0.27,0.08,0.35-0.19c0.6-0.03,1.24,0.08,1.91,0.27c0.68,0.21,1.28-0.24,1.82-1.37   c-0.13-0.23-0.27-0.42-0.42-0.56c0.37-0.58,0.72-0.9,1.03-0.95c0.31-0.06,0.63-0.28,0.95-0.68c2.18,0.26,4.41,0.06,6.67-0.59   c0.31-0.09,0.62-0.18,0.92-0.26c0.1-0.04,0.19-0.06,0.29-0.09c0.05,0.01,0.1,0.04,0.17,0.06c0.03-0.05,0.06-0.1,0.1-0.14   c0.35-0.1,0.71-0.19,1.05-0.29c0.1,0.04,0.19,0.09,0.29,0.17c0.59,0.42,1.08,0.4,1.44-0.09c-0.12,0.49-0.12,0.72,0,0.72   c0.12,0,0.27-0.09,0.45-0.27l0.54-0.54c0.18-0.18,0.33-0.27,0.45-0.27c0.13-0.12,0.27-0.15,0.46-0.09   c0.18,0.06,0.32,0.09,0.45,0.09c0.62,0.1,1.09-0.14,1.44-0.73c0.06-0.1,0.13-0.22,0.18-0.35c0.36-0.85,0.85-1.2,1.44-1.09   c0.49-0.59,1-0.9,1.54-0.9c0.54,0,0.99-0.36,1.35-1.08c0.54,0,1.18-0.14,1.92-0.41c0.01,0,0.03-0.01,0.03-0.01   c0.24-0.08,0.5-0.18,0.76-0.29c1.08-0.49,2.46-1.45,4.14-2.88c0.12-0.22,0.27-0.54,0.49-0.94c0.24-0.47,0.56-1.06,0.95-1.77   c0.63-1.13,1.12-1.86,1.46-2.19c0.01-0.01,0.01-0.01,0.03-0.03c0.05-0.04,0.09-0.06,0.12-0.09c0.01-0.01,0.01-0.03,0.03-0.03   l1.91-1.23c0.41-0.6,0.69-1.22,0.83-1.86c1.81-1.95,3.22-3.56,4.27-4.82c1.04-1.27,2.5-2.74,4.37-4.43   c0.26-0.24,0.53-0.31,0.77-0.22c0.28-0.41,0.59-0.78,0.95-1.1c0.44-0.23,0.87-0.33,1.29-0.31c0.42,0.01,0.73-0.14,0.91-0.47   c1.1,0.14,1.87,0.55,2.29,1.2c0.44,0.67,0.81,1.42,1.1,2.29c0.29,0.72,0.59,1.46,0.88,2.22c0.01,0.03,0.03,0.05,0.04,0.08   c0.1,0.28,0.22,0.58,0.33,0.87c0,0,0,0.01,0,0.03c0.03,0.09,0.03,0.18,0.03,0.28c0,0.42,0.12,0.74,0.36,0.99   c0,0.6-0.06,1.03-0.18,1.26c0.49,0.24,0.76,0.58,0.81,0.99C540.32,270.77,540.3,271.19,540.17,271.61z"/>
	<path class="st0" d="M499.37,287.65c-0.35,0.1-0.7,0.19-1.05,0.29C498.59,287.56,498.95,287.46,499.37,287.65z"/>
	<path class="st0" d="M539.25,266.81c-0.12-0.29-0.23-0.59-0.33-0.87C539.09,266.21,539.21,266.5,539.25,266.81z"/>
</g>
<g id="Layer_12">
	<path class="st0" d="M545.49,295.11c-0.06,0-0.15-0.06-0.27-0.18c0.47,0.72,1.17,0.78,2.06,0.18c0.91-0.6,1.72-0.9,2.44-0.9   c0,0.24-0.06,0.38-0.18,0.45c-0.13,0.06-0.18,0.15-0.18,0.27c0.24,0.36,0.45,0.42,0.63,0.18c0.18-0.24,0.38-0.24,0.63,0   c0.12,0.36,0.03,0.6-0.27,0.72c-0.29,0.13-0.45,0.06-0.45-0.18c-0.24,0.13-0.36,0.27-0.36,0.45c0,0.18-0.13,0.27-0.36,0.27   c0.12,0.49,0.12,0.96,0,1.45c0.47,0,0.96-0.06,1.44-0.18c-0.12,0.47-0.18,1.08-0.18,1.79c-0.6,0.36-1.05,0.76-1.35,1.18   c-0.31,0.41-0.76,0.87-1.36,1.35c-0.23,0.12-0.36,0.09-0.36-0.09c0-0.18-0.12-0.27-0.36-0.27v0.72c-0.6-0.12-0.92-0.03-0.99,0.27   c-0.06,0.31-0.21,0.63-0.45,0.99c0.36,0,0.6-0.09,0.72-0.27c0.12-0.18,0.36-0.38,0.72-0.63c0,0.24,0.12,0.4,0.36,0.45   c0.24,0.06,0.36,0.22,0.36,0.45c-0.36,0-0.6,0.06-0.72,0.18c-0.12,0.13-0.36,0.18-0.72,0.18c0,0.13-0.03,0.22-0.09,0.28   c-0.06,0.05-0.09,0.21-0.09,0.45c-0.36-0.13-0.54-0.04-0.54,0.27c0,0.29-0.06,0.56-0.18,0.81c-0.96,0-1.72,0.24-2.26,0.72   c-0.54,0.49-1.23,0.67-2.06,0.54c-0.24,0.49-0.64,0.72-1.18,0.72c-0.54,0-0.92,0.31-1.17,0.91c-0.24,0.12-0.38,0.12-0.45,0   c-0.06-0.13-0.15-0.18-0.27-0.18c-0.36,0.6-0.85,0.96-1.45,1.08c-0.6,0.12-1.08,0.36-1.44,0.72h0.18c-0.24,0.72-0.6,1.26-1.08,1.63   c-0.49,0.36-0.9,0.36-1.27,0c-0.23,0.47-0.56,0.87-0.99,1.17c-0.42,0.29-0.74,0.63-0.99,0.99c0.24,0.13,0.56,0,0.99-0.36   c0.42-0.36,0.76-0.29,0.99,0.18c-0.59,0.6-1.32,1.08-2.15,1.44c-0.85,0.37-1.68,0.67-2.53,0.91c0,0.47,0.06,0.63,0.18,0.45   c0.12-0.18,0.18-0.15,0.18,0.09c-0.23,0.24-0.47,0.38-0.72,0.45c-0.24,0.06-0.36,0.38-0.36,0.99c-1.2-0.23-1.74,0.24-1.61,1.45   c-0.24,0.12-0.42,0-0.54-0.36c-1.69,1.32-3.51,2.46-5.5,3.41c-1.97,0.96-3.87,2.05-5.67,3.24c-1.33,0-2.53,0.67-3.6,1.99   c-1.81,0.6-3.51,1.35-5.14,2.24c-1.61,0.91-3.2,1.83-4.77,2.79c0,0.24,0.06,0.31,0.18,0.18c0.12-0.12,0.24-0.18,0.36-0.18   c-1.32,1.08-2.79,1.92-4.41,2.53c-1.63,0.6-3.09,1.44-4.41,2.51c-1.56,0.13-3,0.49-4.32,1.09c-1.33,0.59-2.65,1.01-3.96,1.26   c-0.24,0.12-0.58,0.15-1,0.09c-0.42-0.06-0.87-0.03-1.35,0.09c-0.96,0.24-2.31,0.29-4.05,0.18c-1.74-0.12-3.22-0.29-4.41-0.54   c-0.24-0.12-0.51-0.27-0.82-0.45c-0.29-0.18-0.63-0.4-0.99-0.63c-0.12,0-0.27,0.05-0.45,0.18c-0.18,0.12-0.33,0.05-0.45-0.18   c-0.24-0.13-0.49-0.36-0.72-0.72c-0.24-0.37-0.6-0.67-1.09-0.91c-0.6-0.36-1.19-0.74-1.79-1.17c-0.6-0.42-1.2-0.74-1.81-0.99   c0-0.24-0.05-0.4-0.18-0.45c-0.12-0.06-0.18-0.22-0.18-0.45c-0.36,0-0.54-0.06-0.54-0.19c-0.12-0.23-0.15-0.41-0.09-0.54   c0.06-0.12,0.09-0.23,0.09-0.36c-0.24-0.12-0.33-0.09-0.27,0.09c0.06,0.18,0.03,0.22-0.09,0.09c-0.96-1.32-1.79-2.73-2.51-4.23   c-0.73-1.5-1.56-2.79-2.52-3.87c-0.24-1.79-0.85-3.18-1.81-4.14c-0.12,0-0.09,0.09,0.09,0.27c0.18,0.18,0.15,0.27-0.09,0.27   c-1.19-1.79-1.77-4.17-1.7-7.11c0.06-2.94,0.56-5.6,1.53-8.01c0.36-0.47,0.67-1.01,0.91-1.61c0.23-0.6,0.65-1.03,1.26-1.27   c1.32-3.36,3-6.2,5.04-8.55c2.04-2.35,4.02-4.59,5.95-6.75c0.36-0.47,0.74-0.9,1.17-1.26c0.42-0.36,0.87-0.83,1.35-1.44   c0.37-0.49,0.91-1.03,1.63-1.63c0.6-0.6,1.23-1.19,1.88-1.79c0.67-0.6,1.36-1.2,2.08-1.81c1.19-0.96,2.19-1.95,2.97-2.97   c0.78-1.01,1.77-1.82,2.97-2.42c0-0.24,0.03-0.36,0.09-0.36c0.05,0,0.09-0.13,0.09-0.36c0.83-0.37,1.59-0.82,2.24-1.36   c0.67-0.54,1.29-1.28,1.9-2.24c0.96,0.12,1.64-0.18,2.06-0.91c0.42-0.72,0.94-1.26,1.54-1.62c0.47-0.24,0.92-0.42,1.35-0.54   c0.42-0.12,0.81-0.36,1.17-0.72c0.49-0.49,0.91-0.85,1.27-1.09c1.79-1.19,3.6-2.31,5.4-3.33c1.81-1.01,3.72-2,5.77-2.96   c1.32-0.6,2.69-1.32,4.14-2.17c1.44-0.83,3-1.5,4.68-1.97c0.36,0,0.54-0.13,0.54-0.37c0.24,0.13,0.51,0.09,0.81-0.09   c0.31-0.18,0.58-0.32,0.82-0.45c0.95-0.36,1.95-0.68,2.96-0.99c1.03-0.29,2.01-0.56,2.97-0.81c0.96,0,2.08,0.03,3.33,0.09   c1.26,0.06,2.37,0.38,3.33,0.99c0.12,0.36,0.12,0.54,0,0.54h-0.36c0.47,0.36,1.01,0.72,1.61,1.09c0.6,0.36,1.03,0.96,1.27,1.79   c0.23,0.24,0.59,0.49,1.08,0.72c0.36,1.09,0.83,1.68,1.44,1.81c-0.24,0.12-0.29,0.21-0.18,0.27c0.12,0.06,0.18,0.15,0.18,0.27   c0.49,0.36,0.78,0.74,0.9,1.17c0.13,0.42,0.31,0.94,0.55,1.54c0.97,2.26-15.9,13.94-17.83,11.52c-0.24-0.24-0.58-0.31-0.99-0.18   c-0.42,0.12-0.85,0.29-1.27,0.54c-0.42,0.24-0.83,0.45-1.26,0.63c-0.42,0.18-0.69,0.21-0.81,0.09c-0.24,0.24-0.78,0.69-1.63,1.35   c-0.83,0.67-1.37,1-1.62,1c-0.85,0.12-1.54,0.56-2.08,1.35c-0.54,0.78-1.17,1.05-1.88,0.81c-0.24,0.49-0.54,0.9-0.9,1.26   c-0.37,0.37-0.78,0.42-1.27,0.18c-0.24,0.24-0.47,0.49-0.72,0.73c-0.24,0.24-0.6,0.36-1.08,0.36c-0.13,0-0.15,0.09-0.09,0.27   c0.05,0.18,0.03,0.27-0.09,0.27c-0.36-0.12-0.63-0.03-0.82,0.27c-0.18,0.29-0.38,0.45-0.63,0.45c0-0.12-0.06-0.18-0.18-0.18v0.36   c-0.72,0.6-1.47,1.12-2.24,1.54c-0.68,0.36-1.29,0.92-1.83,1.7c-0.01,0-0.01,0.01-0.01,0.01c-0.08,0.12-0.15,0.23-0.23,0.35h-0.36   v0.54c2.05,1.15-12.96,17.11-14.77,16.57c-0.96,0.96-1.92,1.97-2.88,3.05c-0.96,1.09-1.79,2.35-2.51,3.78   c-0.13,0-0.18-0.03-0.18-0.09c0-0.05-0.06-0.09-0.18-0.09c-0.13,0.49-0.33,0.82-0.64,1c-0.29,0.18-0.45,0.69-0.45,1.53   c-0.72,0.36-1.14,1.03-1.26,1.99c-0.12,0.96-0.49,1.74-1.08,2.33c1.32,0,2.73-0.18,4.23-0.54c1.5-0.36,2.91-0.6,4.23-0.72   c0.24-0.12,0.36-0.27,0.36-0.45c0-0.18,0.12-0.33,0.36-0.45c0.85,0.12,1.5,0.03,1.99-0.27c0.47-0.31,1.08-0.46,1.79-0.46   c0.12,0,0.29-0.23,0.54-0.72c0.6,0.13,1.32,0,2.17-0.36c0.83-0.36,1.55-0.72,2.15-1.08c1.32,0,2.61-0.33,3.87-0.99   c1.27-0.67,2.55-1.12,3.87-1.36c0.6-0.72,1.41-1.08,2.44-1.08c1.03,0,1.72-0.42,2.08-1.26c0.96-0.24,1.86-0.45,2.69-0.64   c0.85-0.18,1.68-0.56,2.52-1.17c0.12,0,0.18,0.06,0.18,0.18c0,0.13,0.12,0.13,0.36,0v-0.36c0.72-0.47,1.56-0.78,2.52-0.9   c0.96-0.12,1.74-0.6,2.33-1.44c1.69,0,3.19-0.42,4.51-1.27h0.18c0.12,0,0.18,0.04,0.18,0.09c0,0.06,0.05,0.09,0.18,0.09   c0.12,0,0.21-0.05,0.27-0.18c0.06-0.12,0.21-0.23,0.45-0.36c1.68-0.47,3.36-1.1,5.04-1.88c1.68-0.78,3.55-1.72,5.59-2.79   c0.23,0.24,0.47,0.27,0.72,0.09s0.54-0.15,0.9,0.09c0.96-0.6,1.92-0.96,2.88-1.08c0.96-0.13,1.99-0.37,3.06-0.73   c0.72-0.23,1.44-0.54,2.15-0.9c0.73-0.36,1.5-0.54,2.35-0.54c0.96,0,1.86-0.29,2.7-0.9c0.83-0.6,1.73-1.03,2.69-1.27   c0.49,0,1-0.03,1.54-0.09c0.54-0.05,0.99-0.09,1.35-0.09c0,0.37-0.15,0.55-0.45,0.55c-0.29,0-0.45,0.18-0.45,0.54   c-0.72-0.24-1.32-0.09-1.79,0.45c-0.49,0.54-1.09,0.69-1.81,0.45c-0.12,0.24-0.24,0.36-0.36,0.36c-0.12,0-0.18,0.12-0.18,0.36   C545.63,295.17,545.54,295.11,545.49,295.11z"/>
</g>
<g id="Layer_3">
	<path class="st0" d="M625.16,274.86c-0.12,1.5-0.42,3.09-0.9,4.77c0.23,0.24,0.41,0.42,0.54,0.54c0.12,0.13,0.18,0.36,0.18,0.72   c-0.12,0.13-0.42,0.18-0.9,0.18c-0.24,2.41-0.67,4.42-1.27,6.04c-0.6,1.61-1.01,3.58-1.26,5.86c-0.24,0.23-0.42,0.65-0.54,1.26   c-0.13,0.6-0.31,1.08-0.54,1.44c-0.13,0.24-0.13,0.36,0,0.36c0.12,0,0.18,0.18,0.18,0.54c-0.49,0.6-0.78,1.56-0.9,2.88   c-0.13,1.32-0.42,2.46-0.91,3.42c-0.27,1.88-0.65,3.74-1.14,5.6c-0.18,0.63-0.37,1.24-0.56,1.87c-0.78,2.46-1.47,4.95-2.08,7.47   v2.17c0,0.72-0.12,1.44-0.36,2.15c-0.12,0.6-0.29,1.12-0.54,1.54c-0.24,0.42-0.42,0.92-0.54,1.53c-0.24,0.6-0.36,1.05-0.36,1.35   c0,0.31-0.06,0.55-0.18,0.73c-0.13,0.18-0.27,0.42-0.45,0.72c-0.18,0.29-0.45,0.74-0.82,1.35c0.13,0.36,0.15,0.63,0.09,0.81   c-0.05,0.18-0.09,0.46-0.09,0.82c-0.36,0-0.6-0.24-0.72-0.73c-0.24,0.24-0.29,0.67-0.18,1.27c0.12,0.6,0.18,1.01,0.18,1.26   c-0.36,0.6-0.65,0.63-0.9,0.09c-0.24-0.54-0.6-0.63-1.08-0.27c-0.36,0.24-0.6,0.69-0.72,1.35c-0.13,0.67-0.37,1-0.73,1   c0,1.44-0.27,2.6-0.81,3.51c-0.54,0.9-0.87,2.18-0.99,3.87c-0.72,0.12-1.72-0.04-2.97-0.46c-1.26-0.41-2.24-0.32-2.97,0.28   c-0.96-2.41-1.77-4.47-2.42-6.22c-0.67-1.74-1.18-4.17-1.54-7.29c-0.06-0.62-0.08-1.27-0.05-1.97c0.01-0.68,0.05-1.4,0.14-2.17   c0.18-1.56,0.42-3.15,0.72-4.77c0.31-1.63,0.55-3.24,0.73-4.87c0.18-1.62,0.27-3.15,0.27-4.59c-0.36-1.56-0.54-3.29-0.54-5.22   s-0.18-3.85-0.55-5.77c-0.36,0-0.92,0.04-1.7,0.09c-0.78,0.06-1.23,0.22-1.35,0.45c-0.73,0.85-1.42,1.6-2.08,2.26   c-0.67,0.67-1.29,1.41-1.88,2.26c-0.24,0.47-0.49,0.72-0.73,0.72c-0.36,0.36-0.72,0.72-1.08,1.08c-0.36,0.36-0.72,0.6-1.08,0.72   c-1.01,1.44-1.97,2.76-2.88,3.97c-0.4,0.53-0.79,1.04-1.17,1.53c-1.27,1.61-2.73,3.27-4.41,4.95c-0.73,0.36-1.38,0.94-1.99,1.7   c-0.6,0.78-1.2,1.69-1.81,2.7c-0.59,1.03-1.17,2.01-1.7,2.97c-0.54,0.96-1.17,1.68-1.88,2.15c-0.49,0.37-0.96,0.76-1.45,1.18   c-0.47,0.42-0.83,0.99-1.08,1.7c-0.24,0-0.4,0.06-0.45,0.18c-0.06,0.13-0.22,0.06-0.45-0.18c-0.73,1.32-2.01,2.64-3.87,3.96   c-1.87,1.32-3.22,2.64-4.05,3.96c-0.37,0-0.67-0.05-0.91-0.18c-0.24,0.13-0.47,0.67-0.72,1.63s-0.47,1.55-0.72,1.79   c-0.6-0.47-0.99-0.51-1.17-0.09c-0.18,0.42-0.58,0.51-1.18,0.27c-0.72-0.24-1.37-0.21-1.97,0.09c-0.6,0.31-1.19,0.33-1.79,0.09   c0-0.01,0-0.01,0-0.01c-0.01-0.58-0.01-1.13,0.03-1.68c0.19-0.56,0.31-1.18,0.35-1.82c0.03-0.64,0.29-1.18,0.79-1.6   c0.18-3.6,0.87-6.83,2.06-9.7c1.19-2.87,2.36-5.63,3.5-8.29c0.19-0.56,0.42-1.09,0.7-1.56c0.29-0.47,0.56-1.06,0.82-1.79   c0.21-0.58,0.54-1.26,1.03-2.05c0.38-0.77,0.79-1.53,1.23-2.31c0.44-0.78,0.9-1.56,1.38-2.37c0.83-1.28,1.46-2.54,1.88-3.76   c0.42-1.22,1.1-2.29,2.05-3.24c-0.08-0.23-0.09-0.35-0.03-0.37c0.05-0.01,0.04-0.15-0.03-0.37c0.67-0.62,1.24-1.28,1.69-2   c0.46-0.72,0.82-1.63,1.09-2.73c0.95-0.19,1.5-0.69,1.67-1.51c0.17-0.82,0.49-1.49,0.95-2.03c0.37-0.37,0.74-0.69,1.1-0.94   c0.36-0.24,0.65-0.59,0.88-1.05c0.31-0.62,0.59-1.09,0.86-1.44c0.53-0.67,1.05-1.33,1.59-1.97c0.29-0.37,0.6-0.74,0.91-1.1   c0.63-0.5,1.19-1.14,1.65-1.91c0.08-0.09,0.13-0.18,0.18-0.27c0.65-1.14,1.46-2.19,2.42-3.15c0.24-0.24,0.64-0.56,1.18-0.99   c0.54-0.42,0.92-0.94,1.17-1.54c0.72-0.72,1.38-1.53,1.99-2.42c0.59-0.9,1.19-1.65,1.79-2.26c0.12-0.23,0.27-0.36,0.45-0.36   c0.18,0,0.27-0.06,0.27-0.18c1.09-1.08,2.01-2.4,2.79-3.96c0.78-1.56,1.83-2.64,3.15-3.24l0.36-0.36c0.12-0.12,0.12-0.36,0-0.72   c0.83-0.36,1.59-0.9,2.26-1.63c0.65-0.72,1.32-1.5,1.97-2.33c0.67-0.85,1.32-1.59,1.99-2.26c0.65-0.65,1.46-1.1,2.42-1.35   c0.72-0.24,1.36-0.36,1.9-0.36s1.23-0.12,2.06-0.36c0.85,0.6,1.74,0.81,2.7,0.63c0.96-0.18,1.74,0.21,2.35,1.17   c0.23,0.24,0.38,0.22,0.45-0.09c0.05-0.29,0.21-0.33,0.45-0.09c0.72,0.36,1.37,0.85,1.97,1.44c0.6,0.6,1.32,1.2,2.17,1.81   c0.36-0.24,0.96-0.24,1.81,0c0.59,1.32,1.37,2.37,2.33,3.15c0.96,0.78,1.63,2.01,1.99,3.69c0.23,0.24,0.38,0.56,0.45,0.99   c0.05,0.42,0.21,0.69,0.45,0.81c0.12,0.24,0.09,0.36-0.09,0.36c-0.18,0-0.27,0.13-0.27,0.36   C625.04,271.77,625.28,273.36,625.16,274.86z"/>
	<path class="st0" d="M577.68,285.5c-0.31,0.36-0.62,0.73-0.91,1.1l0.31-0.67C577.29,285.8,577.49,285.66,577.68,285.5z"/>
	<path class="st1" d="M579.34,283.59c-0.46,0.77-1.03,1.41-1.65,1.91c0.51-0.62,1.04-1.2,1.55-1.79   C579.27,283.66,579.3,283.62,579.34,283.59z"/>
</g>
<g id="Layer_15">
	<path class="st0" d="M578.84,280.37v0.01c0.21,0.45,0.27,0.91,0.21,1.35c-0.13,0.78-0.36,1.59-0.72,2.44   c-0.49,1.32-1,2.67-1.54,4.05c-0.54,1.37-1.35,2.73-2.42,4.05c-0.24,0.72-0.46,1.44-0.64,2.15c-0.17,0.7-0.7,1.4-1.6,2.09   c-0.03,0.03-0.06,0.05-0.1,0.08c0.01,0.01,0.04,0.01,0.05,0.03c0.21,0.1,0.28,0.15,0.22,0.15s0.09,0.12,0.45,0.36   c-0.96,1.32-1.68,2.79-2.15,4.41c-0.49,1.63-1.33,3.09-2.53,4.41v0.55c-0.72,1.19-1.38,2.67-1.99,4.41   c-0.6,1.74-1.23,3.51-1.88,5.31c-0.67,1.81-1.32,3.54-1.99,5.23c-0.65,1.68-1.41,3.11-2.24,4.32c0.12,0.24,0.09,0.42-0.09,0.54   s-0.15,0.36,0.09,0.72c-1.69,2.64-3.33,5.22-4.96,7.74c-1.61,2.53-2.67,5.17-3.14,7.92c-0.6,0.24-1,0.54-1.18,0.9   c-0.18,0.37-0.69,0.67-1.53,0.91c-0.12-0.22-0.27-0.44-0.47-0.65c-0.23,0.06-0.45,0.15-0.67,0.26c-0.55,0.24-0.94,0.78-1.18,1.63   c-0.21,0-0.4-0.04-0.56-0.13c-0.53-0.23-0.87-0.86-1.05-1.86c0.47,0.72,0.72,0.65,0.72-0.18c0-0.24-0.12-0.49-0.36-0.72   c-0.6,0.23-0.81,0.81-0.63,1.7c0.18,0.9-0.03,1.54-0.63,1.9c-0.24-0.49-0.37-1.2-0.37-2.17c-0.59,0.12-1.26,0.54-1.97,1.26   c-0.72,0-1.17-0.21-1.35-0.63c-0.19-0.42-0.51-0.63-1-0.63c-0.23-0.47-0.36-1.12-0.36-1.88c0-0.78,0.04-1.63,0.09-2.52   c0.06-0.9,0.09-1.81,0.09-2.7c0-0.9-0.05-1.7-0.18-2.42c0.36-2.28,0.72-4.83,1.08-7.65c0.37-2.82,0.85-5.26,1.45-7.29   c0.12,0.12,0.24,0.18,0.36,0.18c0.96-3.24,1.92-6.42,2.88-9.55c0.95-3.11,1.86-6.42,2.69-9.89c0.36-0.73,0.64-1.6,0.82-2.61   c0.18-1.03,0.56-1.83,1.17-2.44c0-0.36,0.03-0.69,0.09-0.99c0.06-0.29,0.03-0.63-0.09-0.99c0.96-0.96,1.65-2.19,2.06-3.69   c0.42-1.5,0.82-3.09,1.18-4.78c0.83-1.08,1.46-2.36,1.88-3.87c0.04-0.14,0.08-0.28,0.12-0.42c0.4-1.36,0.81-2.74,1.24-4.17   c0.59-0.96,1.01-1.95,1.26-2.97c0.24-1.01,0.6-2.06,1.08-3.14c0.12-0.24,0.22-0.6,0.27-1.09c0.06-0.47,0.22-0.83,0.45-1.08   c0.6-1.32,1.32-2.55,2.17-3.69c0.83-1.14,1.26-2.55,1.26-4.23c0.49-0.12,0.78-0.47,0.91-1.08c0.12-0.6,0.29-1.03,0.54-1.27   c-0.13-0.12-0.18-0.23-0.18-0.36c0-0.12-0.04-0.24-0.09-0.36c-0.06-0.12-0.04-0.29,0.09-0.54c0.47,0.24,0.92,0.42,1.35,0.54   c0.42,0.12,0.94-0.06,1.53-0.54c0.13,0.47,0.49,0.72,1.09,0.72c1.32-0.24,2.7-0.21,4.14,0.09c1.44,0.31,2.51,1.05,3.24,2.26   c0.23,0,0.36-0.13,0.36-0.36c0.24,0.12,0.32,0.29,0.27,0.54c-0.06,0.24-0.03,0.42,0.09,0.54c0,0.6,0.21,1.08,0.63,1.44   c0.42,0.36,0.76,0.91,0.99,1.63c0.13,0.72,0.24,1.65,0.36,2.78c0.13,1.15,0.31,2.26,0.55,3.33c0,0.24,0.12,0.49,0.36,0.73   c0.12,0.47,0.12,1.08,0,1.79c-0.13,0.72-0.06,1.2,0.18,1.44c0,0.96-0.13,2.1-0.36,3.42c-0.24,1.32-0.13,2.23,0.36,2.7   C578.99,280,578.91,280.19,578.84,280.37z"/>
	<path class="st0" d="M572.12,296.51l-0.05,0.1c-0.01-0.01-0.04-0.01-0.05-0.03C572.06,296.56,572.1,296.53,572.12,296.51z"/>
</g>
<g id="Layer_2">
	<path class="st0" d="M632.54,323.92c0.14-0.09,0.27-0.19,0.41-0.27c-0.01,0.03-0.04,0.05-0.05,0.09   C632.77,323.99,632.66,324.04,632.54,323.92z"/>
	<path class="st0" d="M709.96,308.62c-0.12,0.96-0.33,1.79-0.63,2.51c-0.29,0.73-0.56,1.51-0.81,2.35c-0.36,0-0.67,0.06-0.9,0.18   c-0.24,0.12-0.6,0.18-1.09,0.18c-0.83,1.08-1.86,1.86-3.05,2.35c-1.2,0.47-2.28,1.19-3.24,2.15c-1.45,0.49-2.41,0.85-2.88,1.09   c-3.24,1.08-6.46,2.22-9.64,3.41c-3.18,1.2-6.51,2.23-9.98,3.06c-0.24,0-0.33,0.13-0.27,0.36c0.05,0.24-0.04,0.36-0.27,0.36   c-0.36,0-0.54-0.12-0.54-0.36c-1.81,0.96-3.58,1.63-5.32,1.99c-1.74,0.36-3.58,0.9-5.49,1.61c-0.13,0-0.18,0.13-0.18,0.36   c-4.09,1.09-8.05,2.46-11.89,4.15c-1.32,0.47-2.49,0.96-3.5,1.44c-1.03,0.47-2.19,0.72-3.51,0.72c0,0.13-0.04,0.22-0.09,0.27   c-0.06,0.06-0.09,0.22-0.09,0.45c-0.6,0-1.03-0.06-1.27-0.18c-1.32,0.24-2.55,0.51-3.69,0.81c-1.14,0.31-2.19,0.64-3.15,1   c-0.36,0.12-0.72,0.27-1.08,0.45c-0.36,0.18-0.72,0.38-1.08,0.63c-0.96,0.24-1.9,0.33-2.79,0.27c-0.9-0.06-1.7,0.21-2.44,0.81   c-1.32-0.12-2.64-0.03-3.96,0.27c-1.32,0.31-2.82,0.4-4.5,0.27c0-0.6,0.13-0.99,0.36-1.17c0.24-0.18,0.36-0.38,0.36-0.63   c0.24,0.24,0.55,0.33,0.91,0.27c0.36-0.06,0.6-0.21,0.72-0.45c0.24-0.24,0.29-0.45,0.18-0.63c-0.12-0.18-0.18-0.4-0.18-0.63   c-0.36,0-0.78,0.03-1.27,0.09c-0.47,0.05-0.83,0.21-1.08,0.45c-0.23,0.12-0.47,0.32-0.72,0.63c-0.24,0.29-0.54,0.38-0.9,0.27   c0-0.24,0.09-0.51,0.27-0.81c0.18-0.31,0.38-0.58,0.63-0.81h-0.18v-0.37c-0.24,0.13-0.42,0.13-0.54,0   c-0.12-0.12-0.24-0.05-0.36,0.18c-0.24-0.12-0.31-0.27-0.18-0.45c0.12-0.18,0.12-0.33,0-0.45c-0.36,0.12-0.49,0.27-0.36,0.45   c0.12,0.18,0.18,0.4,0.18,0.64c-0.6,0.23-0.96,0.21-1.09-0.1c-0.12-0.29-0.29-0.32-0.54-0.09c-0.23-0.47-0.14-0.92,0.27-1.35   c0.42-0.42,0.45-0.87,0.09-1.35c-0.23,0.12-0.45,0.24-0.63,0.36c-0.18,0.12-0.38,0.12-0.63,0c-0.12-0.47-0.09-0.99,0.09-1.54   c0.18-0.54,0.15-1.04-0.09-1.53c0.24-0.24,0.47-0.51,0.72-0.81c0.24-0.29,0.49-0.45,0.72-0.45c-0.12-0.85,0.09-1.38,0.63-1.63   c0.55-0.23,0.76-0.65,0.64-1.26c0.6-0.24,1.05-0.45,1.35-0.63c0.29-0.18,0.76-0.21,1.35-0.09c1.81-0.96,3.49-1.63,5.05-1.99   c1.55-0.36,3.18-0.96,4.86-1.79c-0.06-0.22-0.14-0.32-0.22-0.32c1.78-1.19,3.78-2.17,5.97-2.92c2.41-0.85,4.51-1.92,6.31-3.24   c0.24,0.12,0.38,0.12,0.45,0c0.06-0.12,0.15-0.06,0.27,0.18c1.09-0.6,2.26-1.08,3.51-1.44c1.27-0.36,2.26-1.03,2.97-1.99   c0.24,0,0.51-0.09,0.81-0.27c0.31-0.18,0.58-0.27,0.81-0.27c1.56-1.08,3.28-2.04,5.14-2.88c1.86-0.83,3.63-1.79,5.31-2.88   c-0.24-0.23-0.47-0.36-0.72-0.36c-0.12,0-0.24,0.04-0.36,0.09c-0.12,0.06-0.24,0.09-0.36,0.09c-0.49-0.23-1.05-0.32-1.72-0.27   c-0.65,0.06-1.28,0.09-1.88,0.09c-0.6-0.12-1.23-0.27-1.88-0.45c-0.67-0.18-1.29-0.38-1.9-0.63c-0.6-0.24-1.17-0.33-1.7-0.27   c-0.55,0.06-1.12-0.03-1.72-0.27c-0.6-0.47-1.32-0.78-2.17-0.9c-0.83-0.12-1.55-0.31-2.15-0.54c-0.85-1.45-1.95-2.41-3.33-2.88   c-1.38-0.49-2.37-1.45-2.97-2.88c-1.79-0.6-2.91-1.61-3.33-3.06c-0.42-1.44-1.05-2.82-1.88-4.14c-0.24,0-0.31,0.15-0.18,0.45   c0.12,0.31,0.05,0.51-0.18,0.63c-0.49-0.95-0.6-2.22-0.36-3.78c0.23-1.55,0.41-2.82,0.54-3.78c0.23-0.59,0.36-1.17,0.36-1.7   c0-0.54,0.24-1.05,0.72-1.53c-0.6-0.6-1.03-0.96-1.26-1.09c-0.13-0.6-0.06-1.01,0.18-1.26c0.23-0.24,0.6-0.54,1.08-0.9   c0.6-0.85,1.03-1.92,1.26-3.24c0.46-0.32,0.86-0.71,1.2-1.12c0.31-0.35,0.56-0.73,0.78-1.14c0.47-0.9,1.01-1.7,1.61-2.42   c0,0.12,0.06,0.18,0.18,0.18c1.2-0.96,2.44-1.99,3.69-3.06c1.27-1.08,2.5-2.17,3.69-3.24c0.85-0.24,1.63-0.72,2.35-1.44   c1.32-0.96,2.52-2.01,3.6-3.15c1.08-1.14,2.28-2.08,3.6-2.79c0.12-0.24,0.33-0.38,0.63-0.45c0.29-0.06,0.45-0.33,0.45-0.81   c1.2-0.24,2.31-0.78,3.33-1.63c1.03-0.83,2.31-1.44,3.87-1.79c0.12,0,0.36-0.31,0.72-0.9c1.68-0.24,3.33-0.82,4.96-1.72   c0.97-0.54,1.95-0.81,2.95-0.81h0.01c0.27,0.1,0.51,0.14,0.74,0.13c0.15-0.01,0.31-0.01,0.45,0.01c0.1,0.01,0.19,0.04,0.29,0.06   c0.06,0.01,0.12,0.03,0.18,0.05c0.1,0.04,0.21,0.09,0.31,0.15c0.05,0.03,0.09,0.06,0.14,0.09c0.38,0.51,0.77,0.83,1.13,0.94   c0.36,0.12,0.73,0.31,1.13,0.59c0.83,0.9,1.54,1.82,2.1,2.79c0.58,0.96,1.27,1.65,2.09,2.06c1.29,1.99,2.37,3.58,3.23,4.74   c0.86,1.18,1.82,2.77,2.87,4.76c0.14,0.28,0.15,0.53,0.01,0.72c0.29,0.32,0.54,0.68,0.74,1.06c0.1,0.42,0.1,0.82-0.01,1.18   c-0.12,0.36-0.05,0.67,0.21,0.9c-0.37,0.91-0.88,1.49-1.55,1.72c-0.67,0.23-1.4,0.38-2.22,0.45c-1.24,0.17-2.51,0.32-3.83,0.47   c-1.31,0.14-2.7,0.06-4.2-0.23c-0.67,0.1-1.32,0.24-1.96,0.4s-1.45,0.01-2.42-0.45c0.01,0.24,0,0.33-0.03,0.28   c-0.03-0.04-0.05,0.13-0.09,0.51c-1.2-0.17-2.41-0.17-3.64,0c-0.27,0.09-0.54,0.18-0.79,0.28c-0.78,0.31-1.65,0.58-2.61,0.81   c-1.79,1.33-3.6,2.53-5.4,3.6c-1.81,1.09-3.36,2.46-4.68,4.14c-0.13,0-0.18-0.03-0.18-0.09c0-0.05-0.06-0.09-0.18-0.09   c-1.2,1.33-2.32,2.61-3.33,3.87c-1.03,1.27-2.14,2.44-3.33,3.51c0.12,0.36,0.12,0.6,0,0.73c2.04,1.55,5.1,2.51,9.18,2.87   c0.24,0.13,0.51,0.15,0.81,0.09c0.31-0.05,0.64-0.09,1-0.09c0.47,0.13,1.1,0.27,1.88,0.45c0.78,0.18,1.59,0.27,2.44,0.27   c1.19,0.13,2.44,0.22,3.69,0.28c1.26,0.05,2.49,0.21,3.69,0.45c1.32,0.24,2.73,0.45,4.23,0.63c1.5,0.18,2.97,0.38,4.41,0.63   c0.24,0,0.42-0.09,0.54-0.27c0.13-0.18,0.24-0.27,0.36-0.27c0.24,0.12,0.49,0.24,0.73,0.36c0.23,0.12,0.47,0.18,0.72,0.18   c0.59,0.24,1.26,0.29,1.97,0.18c0.72-0.12,1.38-0.29,1.99-0.54c2.04-0.24,3.36,0.12,3.96,1.08c0.83-0.12,1.68-0.12,2.52,0   c0.83,0.13,1.68,0.24,2.51,0.36c0.24,0.13,0.51,0.13,0.81,0c0.31-0.12,0.58-0.12,0.82,0c0.36,0.13,0.65,0.33,0.9,0.63   c0.24,0.31,0.6,0.51,1.08,0.64c0.12,0.12,0.24,0.14,0.36,0.09c0.12-0.06,0.18-0.04,0.18,0.09c0.96,0.47,1.77,0.9,2.44,1.26   c0.65,0.36,1.28,0.78,1.88,1.26c0.24,0.73,0.6,1.18,1.09,1.36c0.47,0.18,0.77,0.51,0.9,0.99c0,0.12,0.03,0.09,0.09-0.09   s0.15-0.15,0.27,0.09c-0.49,1.08-0.42,2.52,0.18,4.32c0.12,0.24,0.29,0.49,0.54,0.72v0.72   C709.6,308.26,709.73,308.49,709.96,308.62z"/>
	<path class="st0" d="M676.29,249.02c0.4,0,0.79,0.04,1.19,0.14c-0.14-0.03-0.29-0.03-0.45-0.01   C676.8,249.16,676.56,249.12,676.29,249.02z"/>
	<path class="st0" d="M678.28,249.38l-0.01,0.05c-0.1-0.06-0.21-0.12-0.31-0.15C678.06,249.3,678.17,249.34,678.28,249.38z"/>
</g>
<g id="Layer_13">
	<path class="st0" d="M678.27,249.38c0.12-0.6,0.15-1.05,0.09-1.35c-0.06-0.3-0.09-0.81-0.09-1.53c0.24-0.24,0.48-0.24,0.72,0   c0.48-0.72,1.05-1.35,1.71-1.89c0.66-0.54,1.17-1.35,1.53-2.43c0.48,0,0.78-0.18,0.9-0.54c0.12-0.36,0.36-0.66,0.72-0.9l-0.36,0.36   c0.24,0.24,0.42,0.21,0.54-0.09c0.12-0.3,0.36-0.39,0.72-0.27c0,0.12-0.06,0.3-0.18,0.54c0.24,0,0.42-0.06,0.54-0.18   c0.12-0.12,0.3-0.24,0.54-0.36c0.24,0.24,0.24,0.42,0,0.54c-0.24,0.12-0.24,0.3,0,0.54c0,0.24-0.15,0.36-0.45,0.36   c-0.3,0-0.33,0.12-0.09,0.36c0.24,0.12,0.48,0,0.72-0.36c0.24-0.36,0.48-0.48,0.72-0.36c0,0.48-0.06,0.84-0.18,1.08   c0.72-0.24,1.2-0.66,1.44-1.26c0.24-0.6,0.66-0.9,1.26-0.9c0.12,0.24,0.24,0.45,0.36,0.63c0.12,0.18,0.3,0.39,0.54,0.63   c0.12-0.12,0.33-0.18,0.63-0.18c0.3,0,0.63-0.06,0.99-0.18c0.48,0.24,0.81,0.18,0.99-0.18c0.18-0.36,0.45-0.54,0.81-0.54   c0.24,0.12,0.18,0.48-0.18,1.08c0.24,0.12,0.45,0.09,0.63-0.09c0.18-0.18,0.33-0.39,0.45-0.63c0.36,0.6,0.9,1.11,1.62,1.53   c0.72,0.42,1.38,0.93,1.98,1.53c0.12,0,0.15-0.09,0.09-0.27c-0.06-0.18,0.03-0.27,0.27-0.27c0.24,0.96,0.48,1.5,0.72,1.62   c0.36,1.32,0.78,2.4,1.26,3.24c0.48,0.84,0.72,1.8,0.72,2.88c-0.12,0.48-0.21,0.96-0.27,1.44c-0.06,0.48-0.15,0.84-0.27,1.08   c-0.36,1.44-0.66,2.76-0.9,3.96c-0.24,1.2-0.18,2.34,0.18,3.42c0.48,1.56,0.66,3.18,0.54,4.86c-0.24,0-0.36,0.03-0.36,0.09   c0,0.06-0.06,0.09-0.18,0.09c0,1.56-0.27,3-0.81,4.32c-0.54,1.32-1.11,2.64-1.71,3.96c-0.6,1.56-1.05,3.09-1.35,4.59   c-0.3,1.5-0.81,2.97-1.53,4.41c0,0.24-0.03,0.36-0.09,0.36c-0.06,0-0.03,0.12,0.09,0.36c-0.36,0.24-0.54,0.63-0.54,1.17   c0,0.54-0.18,0.93-0.54,1.17c-0.24,0-0.48-0.12-0.72-0.36c-0.96,0.24-1.68,0.78-2.16,1.62c-0.48,0.84-1.2,1.38-2.16,1.62   c0.12-0.36,0.09-0.45-0.09-0.27c-0.18,0.18-0.27,0.15-0.27-0.09c-0.24-0.12-0.36-0.09-0.36,0.09c0,0.18-0.06,0.27-0.18,0.27   c-0.48,0-0.72-0.24-0.72-0.72c-0.24,0.24-0.36,0.27-0.36,0.09c0-0.18-0.12-0.15-0.36,0.09c-0.24,0.12-0.33,0.06-0.27-0.18   c0.06-0.24-0.03-0.42-0.27-0.54c-0.6,0.24-1.11,0.12-1.53-0.36c-0.42-0.48-0.93-0.72-1.53-0.72c-0.48-0.6-1.14-0.96-1.98-1.08   c-0.84-0.12-1.5-0.54-1.98-1.26c-0.24-0.6-0.51-1.05-0.81-1.35c-0.3-0.3-0.57-0.63-0.81-0.99c-0.12-0.96-0.36-1.56-0.72-1.8   c-0.36-0.24-0.54-0.72-0.54-1.44c-0.6-0.36-0.99-0.75-1.17-1.17c-0.18-0.42-0.39-0.93-0.63-1.53c0.24-0.36,0.3-0.84,0.18-1.44   c-0.12-0.6-0.3-1.02-0.54-1.26c0.36-0.72,0.48-1.44,0.36-2.16"/>
</g>
</svg>